<svg width="105" height="48" viewBox="0 0 105 48" fill="none" xmlns="http://www.w3.org/2000/svg">
<path d="M17.4531 14.9375V32H14.2422V14.9375H17.4531ZM22.75 14.9375V17.4805H9.00391V14.9375H22.75ZM27.6953 14V32H24.5898V14H27.6953ZM27.2031 25.2031H26.2891C26.2891 24.3203 26.4062 23.5078 26.6406 22.7656C26.875 22.0234 27.207 21.3789 27.6367 20.832C28.0664 20.2773 28.5781 19.8477 29.1719 19.543C29.7734 19.2383 30.4375 19.0859 31.1641 19.0859C31.7891 19.0859 32.3555 19.1758 32.8633 19.3555C33.3789 19.5273 33.8203 19.8047 34.1875 20.1875C34.5547 20.5703 34.8359 21.0703 35.0312 21.6875C35.2344 22.2969 35.3359 23.0391 35.3359 23.9141V32H32.2188V23.8906C32.2188 23.3047 32.1328 22.8438 31.9609 22.5078C31.7891 22.1641 31.543 21.918 31.2227 21.7695C30.9102 21.6211 30.5234 21.5469 30.0625 21.5469C29.5625 21.5469 29.1328 21.6445 28.7734 21.8398C28.4141 22.0273 28.1172 22.2891 27.8828 22.625C27.6562 22.9609 27.4844 23.3477 27.3672 23.7852C27.2578 24.2227 27.2031 24.6953 27.2031 25.2031ZM41.3477 19.3203V32H38.2422V19.3203H41.3477ZM38.0312 16.0039C38.0312 15.543 38.1875 15.1602 38.5 14.8555C38.8203 14.5508 39.25 14.3984 39.7891 14.3984C40.3281 14.3984 40.7539 14.5508 41.0664 14.8555C41.3867 15.1602 41.5469 15.543 41.5469 16.0039C41.5469 16.457 41.3867 16.8359 41.0664 17.1406C40.7539 17.4453 40.3281 17.5977 39.7891 17.5977C39.25 17.5977 38.8203 17.4453 38.5 17.1406C38.1875 16.8359 38.0312 16.457 38.0312 16.0039ZM47.3359 22.0273V32H44.2422V19.3203H47.1484L47.3359 22.0273ZM46.8438 25.2031H45.9297C45.9375 24.2812 46.0625 23.4453 46.3047 22.6953C46.5469 21.9453 46.8867 21.3008 47.3242 20.7617C47.7695 20.2227 48.2969 19.8086 48.9062 19.5195C49.5156 19.2305 50.1953 19.0859 50.9453 19.0859C51.5547 19.0859 52.1055 19.1719 52.5977 19.3438C53.0898 19.5156 53.5117 19.7891 53.8633 20.1641C54.2227 20.5391 54.4961 21.0312 54.6836 21.6406C54.8789 22.2422 54.9766 22.9844 54.9766 23.8672V32H51.8594V23.8438C51.8594 23.2656 51.7734 22.8086 51.6016 22.4727C51.4375 22.1367 51.1953 21.8984 50.875 21.7578C50.5625 21.6172 50.1758 21.5469 49.7148 21.5469C49.2383 21.5469 48.8203 21.6445 48.4609 21.8398C48.1094 22.0273 47.8125 22.2891 47.5703 22.625C47.3359 22.9609 47.1562 23.3477 47.0312 23.7852C46.9062 24.2227 46.8438 24.6953 46.8438 25.2031ZM60.8008 13.9883V32H57.707V13.9883H60.8008ZM68.7461 19.3203L63.2266 25.5195L60.2383 28.5547L59.2539 26.1523L61.5625 23.2461L65.0078 19.3203H68.7461ZM65.582 32L61.6562 26.0938L63.7188 24.0898L69.168 32H65.582ZM82.0703 25.7773V28.2148H69.7773L69.6484 26.3398L76.8789 14.9375H79.3516L76.6797 19.4727L72.8008 25.7773H82.0703ZM80.043 14.9375V32H76.9375V14.9375H80.043ZM91.9023 14.8906V32H88.7969V18.5117L84.6836 19.8711V17.3633L91.5508 14.8906H91.9023Z" fill="#F16E00"/>
</svg>
